<svg xmlns="http://www.w3.org/2000/svg" viewBox="0 0 401.25 136.31"><defs><style>.cls-1{fill:#2d2d2d;}.cls-2{fill:#919191;}.cls-3{fill:#eb9348;}.cls-4{fill:#c4c4c4;}.cls-5,.cls-6{fill:none;}.cls-6{stroke:#919191;stroke-miterlimit:10;stroke-width:6px;}</style></defs><g id="Layer_2" data-name="Layer 2"><g id="Layer_1-2" data-name="Layer 1"><rect class="cls-1" x="11.41" width="389.84" height="136.31" rx="11.16"/><rect class="cls-2" x="103.71" y="45.57" width="26.88" height="45.17" rx="4.4"/><path class="cls-3" d="M152.65,23h73.93a0,0,0,0,1,0,0v90.35a0,0,0,0,1,0,0H152.65a16.42,16.42,0,0,1-16.42-16.42V39.4A16.42,16.42,0,0,1,152.65,23Z"/><path d="M248.65,23H387.11a0,0,0,0,1,0,0v90.35a0,0,0,0,1,0,0H248.65a16.42,16.42,0,0,1-16.42-16.42V39.4A16.42,16.42,0,0,1,248.65,23Z" transform="translate(619.33 136.31) rotate(180)"/><rect x="168.91" y="63.97" width="24.99" height="8.37" rx="4.19"/><rect x="168.91" y="63.97" width="24.99" height="8.37" rx="4.19" transform="translate(249.56 -113.25) rotate(90)"/><rect class="cls-4" x="344.82" y="63.97" width="24.99" height="8.37" rx="4.19" transform="translate(425.48 -289.17) rotate(90)"/><line class="cls-5" x1="31.58" y1="32.83" x2="32.11" y2="105.36"/><path class="cls-6" d="M20.2,21.78V112a2.52,2.52,0,0,0,4.85,1L51.16,50.3a2.52,2.52,0,0,1,4.8.49l7.8,40.43a2.52,2.52,0,0,0,4.75.59L81.18,64.93a2.52,2.52,0,0,1,4.62.15l4.92,12.48"/><rect class="cls-2" y="26.38" width="11.41" height="19.18" rx="4.4"/><rect class="cls-2" y="95.77" width="11.41" height="19.18" rx="4.4"/></g></g></svg>