<svg xmlns="http://www.w3.org/2000/svg" viewBox="0 0 48.77 61.24"><defs><style>.cls-1{fill:#fbb03b;}</style></defs><g id="Layer_2" data-name="Layer 2"><g id="Layer_1-2" data-name="Layer 1"><path class="cls-1" d="M0,26.82V2.46C0,.31.32,0,2.49,0H37.92c1.91,0,2.28.37,2.29,2.29,0,1.43,0,2.86,0,4.28,0,.68.25.9.9.88,1.71,0,3.41,0,5.12,0,2.28,0,2.55.26,2.55,2.51V58.9c0,2-.36,2.34-2.37,2.34H10.85c-1.91,0-2.28-.37-2.28-2.29,0-1.43,0-2.85,0-4.28,0-.67-.24-.89-.9-.88-1.74,0-3.49,0-5.23,0C.32,53.79,0,53.49,0,51.41Zm11.5,7.44c0,7.6,0,15.21,0,22.81,0,1,.23,1.27,1.24,1.26q15.93,0,31.86,0c1,0,1.28-.2,1.28-1.23q0-22.74,0-45.5c0-1-.25-1.25-1.24-1.24q-15.93,0-31.87,0c-1.1,0-1.28.34-1.27,1.34C11.52,19.21,11.5,26.74,11.5,34.26ZM2.94,26.84V32.3c0,5.82,0,11.64,0,17.46,0,.88.21,1.19,1.11,1.12a18.11,18.11,0,0,1,3.21,0c1.16.12,1.35-.37,1.34-1.4q0-19.59,0-39.19c0-2.74.13-2.85,2.92-2.85,8.2,0,16.4,0,24.6,0,.9,0,1.32-.2,1.21-1.17a9.48,9.48,0,0,1,0-2.13c.11-1-.28-1.25-1.26-1.25Q20.1,3,4.18,2.91c-1,0-1.27.23-1.27,1.24C3,11.71,2.94,19.27,2.94,26.84Z"/><path class="cls-1" d="M28.66,33H17.84c-1.28,0-1.93-.47-2-1.4s.66-1.53,2-1.53q10.83,0,21.65,0c1.32,0,2,.58,2,1.52s-.73,1.41-2,1.41Z"/><path class="cls-1" d="M28.68,23.77H17.76q-1.91,0-1.89-1.44c0-.93.67-1.45,1.9-1.45H39.61a1.66,1.66,0,0,1,1.69.84,1.4,1.4,0,0,1-.2,1.55c-.38.52-.93.51-1.5.51Z"/><path class="cls-1" d="M28.65,42.07c-3.65,0-7.29,0-10.94,0-1,0-1.74-.27-1.83-1.37-.08-.92.65-1.52,1.85-1.53H39.61c1.18,0,1.94.64,1.84,1.54-.12,1.08-.84,1.37-1.86,1.36C35.94,42.05,32.3,42.07,28.65,42.07Z"/><path class="cls-1" d="M24.39,48.41h6.77c1.13,0,1.79.55,1.78,1.44s-.68,1.44-1.81,1.44q-6.72,0-13.43,0c-1.18,0-1.92-.63-1.82-1.55.11-1.1.84-1.37,1.85-1.35C20,48.44,22.17,48.41,24.39,48.41Z"/></g></g></svg>