<svg xmlns="http://www.w3.org/2000/svg" viewBox="0 0 220.21 220.21"><defs><style>.cls-1{fill:#fff;}.cls-1,.cls-2{stroke:#000;stroke-miterlimit:10;stroke-width:6px;}.cls-2{fill:none;}</style></defs><g id="Layer_2" data-name="Layer 2"><g id="Layer_1-2" data-name="Layer 1"><path class="cls-1" d="M24.13,217.21A21.2,21.2,0,0,1,3,196.07V24.13A21.19,21.19,0,0,1,24.13,3H196.07a21.2,21.2,0,0,1,21.14,21.13"/><path class="cls-1" d="M217.21,23.19V165a7.79,7.79,0,0,1-2.28,5.51l-45.29,45.38h0a4.66,4.66,0,0,1-3.29,1.36H23.28"/><path class="cls-2" d="M217.21,168.72h-35.6a13.33,13.33,0,0,0-13.33,13.34L168,217.21"/><line class="cls-2" x1="51.24" y1="110.1" x2="168.97" y2="110.1"/><line class="cls-2" x1="110.1" y1="50.55" x2="110.1" y2="169.66"/></g></g></svg>