<svg xmlns="http://www.w3.org/2000/svg" viewBox="0 0 174.76 193.93"><defs><style>.cls-1{fill:#fbb03b;}</style></defs><g id="Layer_2" data-name="Layer 2"><g id="Layer_1-2" data-name="Layer 1"><path class="cls-1" d="M91.28,166.73A82.16,82.16,0,0,1,77,165.42a61.84,61.84,0,0,1-9.75-2.36c-.48-.17-.74-.16-1,.4A3.37,3.37,0,0,1,61,164.6q-4-3.19-8-6.5c-.56-.46-.81-.42-1.26.14q-13.91,17-27.85,34c-1.66,2-3.58,2.21-5.61.57L1.69,179.47c-2-1.65-2.24-3.61-.56-5.67q13.92-17,27.83-33.94c.48-.58.38-.83-.16-1.25-2.59-2.05-5.15-4.13-7.71-6.21a3.41,3.41,0,0,1-.83-5c.25-.38.08-.59-.09-.86a85,85,0,0,1-5.9-11.66A83.42,83.42,0,0,1,12,58.07a81.56,81.56,0,0,1,15.91-28.6,82.81,82.81,0,0,1,43.46-27A79.65,79.65,0,0,1,92,0a83.62,83.62,0,0,1,70.82,40.35A81,81,0,0,1,174,72.18a83.34,83.34,0,0,1-.81,27.38A81.5,81.5,0,0,1,157.58,134a82.64,82.64,0,0,1-41.4,28.93,80.05,80.05,0,0,1-23,3.72C92.52,166.65,91.9,166.7,91.28,166.73ZM69,112.9a1.26,1.26,0,0,0-.79.2L30.24,130c-.61.27-.56.41-.09.78q3.18,2.52,6.32,5.08A3.46,3.46,0,0,1,37,141c-2.08,2.56-4.18,5.11-6.27,7.66q-11,13.38-21.93,26.75c-.27.33-.38.52.05.86q5.49,4.38,10.94,8.83c.5.4.72.3,1.09-.15q14-17.13,28.05-34.25a3.5,3.5,0,0,1,5.29-.55l6,4.81c.21.16.38.4.75.41Q65,134.18,69,112.9Zm83.64-26H138.27c-.48,0-.8,0-.79.65s0,1.53-.08,2.3a142.72,142.72,0,0,1-3,24.11c-.17.79,0,1,.75,1.28a87.93,87.93,0,0,1,19.6,9.21c.58.37.8.32,1.16-.25a75.89,75.89,0,0,0,11.7-36.51c0-.61-.1-.8-.75-.8C162.15,86.87,157.39,86.86,152.63,86.86Zm-122.39-7c4.74,0,9.47,0,14.21,0,.66,0,.91-.18.92-.86,0-1.41.1-2.82.17-4.23a135.75,135.75,0,0,1,2.87-22.09c.15-.71,0-.91-.67-1.13a88.28,88.28,0,0,1-19.86-9.33c-.43-.28-.63-.27-.91.18A75.69,75.69,0,0,0,15.18,79c0,.7.11.93.86.93C20.77,79.87,25.51,79.89,30.24,79.89Zm122.31,0c4.79,0,9.57,0,14.36,0,.55,0,.79-.09.75-.73a79.49,79.49,0,0,0-2.42-15.32,76,76,0,0,0-9.36-21.36c-.2-.32-.32-.64-.83-.3a88.54,88.54,0,0,1-20.12,9.48c-.56.19-.63.44-.52,1A146.44,146.44,0,0,1,137.48,79c0,.63.15.88.87.88C143.08,79.87,147.82,79.89,152.55,79.89Zm-122.28,7c-4.76,0-9.52,0-14.28,0-.73,0-.86.23-.82.88.17,2.4.41,4.79.77,7.17a75.52,75.52,0,0,0,10.37,28.37c.32.53.57.69,1.2.4q10-4.51,20.1-9a1.07,1.07,0,0,0,.75-1.47,138.64,138.64,0,0,1-3-25.52c0-.66-.16-.87-.85-.87C39.8,86.87,35,86.86,30.27,86.86ZM94.88,29.34v.6q0,10.33,0,20.68c0,.48,0,.82.68.78,2.9-.15,5.79-.29,8.68-.54A137.25,137.25,0,0,0,125,47.41c.64-.16.75-.37.57-1A94.66,94.66,0,0,0,118.64,29a54.62,54.62,0,0,0-10.23-14.17A27.07,27.07,0,0,0,95.78,7.49c-.89-.21-.9-.2-.9.72Zm0,108v21.19c0,.91,0,.91.9.71a22.59,22.59,0,0,0,6.52-2.65,38.65,38.65,0,0,0,11.86-11.51c5.35-7.61,8.82-16.09,11.45-25,.16-.52-.06-.62-.48-.73a137,137,0,0,0-29.41-4c-.71,0-.85.18-.85.84C94.89,123.28,94.88,130.32,94.88,137.36ZM88,29.34c0-7.1,0-14.19,0-21.28,0-.61-.14-.77-.75-.62a23.93,23.93,0,0,0-7,2.91A40.62,40.62,0,0,0,67.76,23,86.88,86.88,0,0,0,57.24,46.51c-.22.7.15.77.65.89a140.88,140.88,0,0,0,29.26,4c.66,0,.83-.11.83-.78C88,43.52,88,36.43,88,29.34Zm24.86,57.52H95.64c-.47,0-.77,0-.77.65q0,10.16,0,20.3c0,.43.09.6.57.62a139.64,139.64,0,0,1,31.32,4.27c.58.15.76,0,.88-.57a144.11,144.11,0,0,0,2.91-24.41c0-.67-.15-.87-.85-.87C124.08,86.87,118.45,86.86,112.82,86.86Zm-.07-7h3.42c4.54,0,9.08,0,13.62,0,.63,0,.82-.19.77-.8-.08-1.06-.1-2.13-.15-3.19a142.92,142.92,0,0,0-2.74-21.22c-.13-.64-.33-.77-1-.6a142.58,142.58,0,0,1-31.1,4.27c-.64,0-.72.26-.71.79q0,10,0,19.94c0,.67.2.82.84.81C101.39,79.88,107.07,79.89,112.75,79.89Zm-42.62,0h17c.5,0,.82,0,.82-.69,0-6.74,0-13.49,0-20.23,0-.43-.1-.6-.57-.62q-4.5-.12-9-.52a140.57,140.57,0,0,1-22.05-3.68c-1-.26-1-.26-1.23.74A143.77,143.77,0,0,0,52.26,79c0,.74.21.9.91.9C58.82,79.88,64.48,79.89,70.13,79.89Zm0,7c-5.68,0-11.36,0-17,0-.6,0-.83.12-.78.78.15,2.22.22,4.45.37,6.68a132.62,132.62,0,0,0,2.19,16.35c.12.57.27.68.81.43,1.7-.79,3.43-1.54,5.15-2.31,3.78-1.69,7.55-3.39,11.34-5.06a3.43,3.43,0,0,1,4.94,3.35,5,5,0,0,1-.2,1.32c-.19.62,0,.7.6.64,3.23-.29,6.48-.47,9.72-.58.6,0,.73-.2.73-.76q0-10,0-20c0-.74-.26-.84-.89-.83C81.44,86.87,75.78,86.86,70.13,86.86ZM88,137.45c0-7.08,0-14.17,0-21.26,0-.66-.17-.83-.82-.8q-5.47.19-10.9.7c-.63.06-.88.27-1,.9q-2.73,14.54-5.52,29.06a1.11,1.11,0,0,0,.25,1,45,45,0,0,0,4.68,5.18,27,27,0,0,0,12.46,7.06c.67.15.84.06.84-.66C88,151.58,88,144.52,88,137.45ZM114.35,10.53c.05.15.05.21.08.24l.91,1a67.84,67.84,0,0,1,11.35,17.35,103,103,0,0,1,5.7,15.39c.11.38.15.71.72.51A85.6,85.6,0,0,0,151,36.6c.51-.32.4-.54.1-.9a76.53,76.53,0,0,0-26.14-20.94A75.89,75.89,0,0,0,114.35,10.53Zm-45.84.13-.08-.11-.26.08a76.76,76.76,0,0,0-36.41,25c-.42.52-.23.71.22,1A85.81,85.81,0,0,0,49.56,45c.6.2.74,0,.9-.51a104.26,104.26,0,0,1,4.9-13.62,69.33,69.33,0,0,1,12.17-19.1ZM114.41,156l.11.14c1-.34,2.07-.66,3.08-1a76.58,76.58,0,0,0,33.31-23.87c.58-.72.58-.71-.21-1.21a83.57,83.57,0,0,0-17.51-8.24c-.56-.2-.68,0-.8.46a100.75,100.75,0,0,1-4.93,13.7A69.43,69.43,0,0,1,116,154.26Z"/></g></g></svg>